<svg width="52" height="52" viewBox="0 0 52 52" fill="none" xmlns="http://www.w3.org/2000/svg">
<circle cx="25.9998" cy="26" r="22.75" fill="#5A5754"/>
<path d="M25.9999 3.25C38.5643 3.25005 48.7499 13.4356 48.7499 26C48.7499 38.5644 38.5643 48.75 25.9999 48.75C13.4354 48.75 3.24988 38.5645 3.24988 26C3.24988 13.4355 13.4354 3.25 25.9999 3.25ZM18.6874 17.875C17.3412 17.875 16.2499 18.9663 16.2499 20.3125C16.2499 21.6587 17.3412 22.75 18.6874 22.75C20.0335 22.7499 21.1248 21.6586 21.1249 20.3125C21.1249 18.9664 20.0335 17.8751 18.6874 17.875ZM33.3124 17.875C31.9662 17.875 30.8749 18.9663 30.8749 20.3125C30.8749 21.6587 31.9662 22.75 33.3124 22.75C34.6585 22.7499 35.7498 21.6586 35.7499 20.3125C35.7499 18.9664 34.6585 17.8751 33.3124 17.875Z" fill="#FCE8A1"/>
<path fill-rule="evenodd" clip-rule="evenodd" d="M12.2571 28.7959C12.5649 28.3989 13.039 28.1665 13.5414 28.1665H38.7223C39.2247 28.1665 39.6988 28.3989 40.0066 28.7959C40.3144 29.193 40.4212 29.71 40.296 30.1965C38.6725 36.5041 32.9487 41.1665 26.1318 41.1665C19.3149 41.1665 13.5911 36.5041 11.9677 30.1965C11.8425 29.71 11.9493 29.193 12.2571 28.7959Z" fill="#97908B"/>
</svg>
