<svg width="52" height="52" viewBox="0 0 52 52" fill="none" xmlns="http://www.w3.org/2000/svg">
<circle stroke="#858B91" stroke-width="1" cx="25.9998" cy="26.0044" r="22.75" fill="#EBECED"/>
<path d="M21.1248 20.3169C21.1248 21.6631 20.0334 22.7544 18.6873 22.7544C17.3411 22.7544 16.2498 21.6631 16.2498 20.3169C16.2498 18.9707 17.3411 17.8794 18.6873 17.8794C20.0334 17.8794 21.1248 18.9707 21.1248 20.3169Z" fill="#858B91"/>
<path d="M35.7498 20.3169C35.7498 21.6631 34.6584 22.7544 33.3123 22.7544C31.9661 22.7544 30.8748 21.6631 30.8748 20.3169C30.8748 18.9707 31.9661 17.8794 33.3123 17.8794C34.6584 17.8794 35.7498 18.9707 35.7498 20.3169Z" fill="#858B91"/>
<path fill-rule="evenodd" clip-rule="evenodd" d="M35.9813 34.2565C30.4758 27.2495 20.4855 27.7453 15.4834 34.2477C15.1186 34.722 14.4385 34.8107 13.9642 34.4459C13.49 34.0811 13.4013 33.4009 13.7661 32.9267C19.5974 25.3463 31.2737 24.758 37.685 32.9179C38.0546 33.3884 37.9729 34.0694 37.5024 34.4391C37.0319 34.8087 36.3509 34.727 35.9813 34.2565Z" fill="#858B91"/>
</svg>
