<svg xmlns="http://www.w3.org/2000/svg">
    <symbol id="ico_star" width="52" height="52" viewBox="0 0 52 52" fill="none">
        <path fill="currentColor" d="M26.0011 5.6875C24.7824 5.6875 23.715 6.4081 23.2259 7.49014L23.2115 7.52286L18.8048 17.8728L7.64926 18.8677L7.64411 18.8682C6.41009 18.9737 5.41502 19.807 5.0304 20.9351L5.02155 20.9618C4.65649 22.0966 4.98342 23.3654 5.89099 24.1767L14.332 31.6964L11.8616 42.5871C11.5934 43.7682 12.0578 45.0067 13.0356 45.7188C14.0085 46.4273 15.3137 46.4954 16.3556 45.887L26.0011 40.1046L35.6305 45.8773L35.6564 45.8925C36.0739 46.1324 36.5999 46.3125 37.1835 46.3125C37.8377 46.3125 38.4368 46.1014 38.9342 45.7575L38.9488 45.7473L38.9666 45.7345C39.9442 45.0226 40.4083 43.783 40.1405 42.6021L37.6559 31.6254L46.1011 24.2013C46.1205 24.1843 46.1394 24.1669 46.1578 24.149C46.97 23.3636 47.3577 22.1337 46.9807 20.9618C46.6126 19.8176 45.5834 18.973 44.3581 18.8682L44.353 18.8677L33.1968 17.8727L28.7928 7.5435L28.7915 7.54033C28.3212 6.42924 27.2221 5.6875 26.0011 5.6875Z"/>
    </symbol>
</svg>