<svg width="52" height="52" viewBox="0 0 52 52" fill="none" xmlns="http://www.w3.org/2000/svg">
<path stroke="#B18F1B" stroke-width="2" fill-rule="evenodd" clip-rule="evenodd" d="M26.0002 48.75C38.5647 48.75 48.7502 38.5645 48.7502 26C48.7502 13.4355 38.5647 3.25 26.0002 3.25C13.4358 3.25 3.25024 13.4355 3.25024 26C3.25024 38.5645 13.4358 48.75 26.0002 48.75Z" fill="#FCE8A1"/>
<path fill-rule="evenodd" clip-rule="evenodd" d="M12.2576 28.7959C12.5654 28.3989 13.0395 28.1665 13.5419 28.1665H38.7228C39.2251 28.1665 39.6993 28.3989 40.0071 28.7959C40.3149 29.193 40.4217 29.71 40.2965 30.1965C38.673 36.5041 32.9492 41.1665 26.1323 41.1665C19.3154 41.1665 13.5916 36.5041 11.9682 30.1965C11.843 29.71 11.9498 29.193 12.2576 28.7959Z" fill="#97908B"/>
<path d="M12.7963 13.1582C11.9004 13.3982 11.1463 14.0014 10.6965 14.8273C10.2472 15.6522 10.1372 16.6323 10.3838 17.5525C10.6304 18.4728 11.2156 19.2666 12.0172 19.7563L17.9724 23.3947C18.0831 23.4624 18.2168 23.4817 18.3421 23.4481C18.4675 23.4145 18.5736 23.331 18.6357 23.217L21.9739 17.0884C22.4232 16.2635 22.5332 15.2835 22.2866 14.3632C22.0401 13.4429 21.4548 12.6491 20.6532 12.1594C19.8507 11.6691 18.8961 11.5237 18.0002 11.7638C17.1043 12.0038 16.3503 12.607 15.9004 13.4329L15.7383 13.7304L15.4493 13.5538C14.6467 13.0635 13.6921 12.9181 12.7963 13.1582Z" fill="#EC6B8E"/>
<path d="M34.1583 11.7632C33.2624 11.5232 32.3078 11.6685 31.5053 12.1588C30.7037 12.6486 30.1184 13.4423 29.8719 14.3626C29.6253 15.2829 29.7353 16.2629 30.1846 17.0879L33.5227 23.2164C33.5847 23.3304 33.6909 23.4139 33.8162 23.4475C33.9416 23.4811 34.0752 23.4618 34.186 23.3941L40.1413 19.7558C40.9429 19.266 41.5281 18.4723 41.7747 17.552C42.0213 16.6317 41.9113 15.6516 41.462 14.8267C41.0122 14.0008 40.2581 13.3977 39.3622 13.1576C38.4664 12.9176 37.5118 13.0629 36.7092 13.5532L36.4201 13.7298L36.2581 13.4323C35.8082 12.6064 35.0542 12.0033 34.1583 11.7632Z" fill="#EC6B8E"/>
</svg>
