<svg width="28" height="28" viewBox="0 0 28 28" fill="none" xmlns="http://www.w3.org/2000/svg">
<path d="M5.63442 7.49058C5.12186 6.97801 5.12186 6.14699 5.63442 5.63442C6.14699 5.12186 6.97801 5.12186 7.49058 5.63442L14 12.1439L20.5095 5.63442C21.022 5.12186 21.853 5.12186 22.3656 5.63442C22.8782 6.14699 22.8782 6.97801 22.3656 7.49058L15.8562 14L22.3656 20.5094C22.8781 21.022 22.8781 21.853 22.3656 22.3656C21.853 22.8781 21.022 22.8781 20.5094 22.3656L14 15.8562L7.49061 22.3656C6.97804 22.8781 6.14702 22.8781 5.63445 22.3656C5.12189 21.853 5.12189 21.022 5.63445 20.5094L12.1439 14L5.63442 7.49058Z" fill="#14181C"/>
</svg>
