<svg width="52" height="52" viewBox="0 0 52 52" fill="none" xmlns="http://www.w3.org/2000/svg">
<circle cx="25.9998" cy="26" r="22.75" fill="#D6D8DA"/>
<path d="M21.1246 20.3125C21.1246 21.6587 20.0333 22.75 18.6871 22.75C17.3409 22.75 16.2496 21.6587 16.2496 20.3125C16.2496 18.9663 17.3409 17.875 18.6871 17.875C20.0333 17.875 21.1246 18.9663 21.1246 20.3125Z" fill="#666E75"/>
<path d="M35.7496 20.3125C35.7496 21.6587 34.6583 22.75 33.3121 22.75C31.9659 22.75 30.8746 21.6587 30.8746 20.3125C30.8746 18.9663 31.9659 17.875 33.3121 17.875C34.6583 17.875 35.7496 18.9663 35.7496 20.3125Z" fill="#666E75"/>
<path fill-rule="evenodd" clip-rule="evenodd" d="M14.2611 30.3327C15.8653 35.3599 20.5747 38.9993 26.1321 38.9993C31.6895 38.9993 36.3988 35.3599 38.0031 30.3327H14.2611ZM13.5416 28.166C13.0393 28.166 12.5651 28.3984 12.2573 28.7954C11.9496 29.1925 11.8427 29.7095 11.9679 30.1961C13.5914 36.5036 19.3152 41.166 26.1321 41.166C32.949 41.166 38.6728 36.5036 40.2962 30.1961C40.4215 29.7095 40.3146 29.1925 40.0068 28.7954C39.699 28.3984 39.2249 28.166 38.7225 28.166H13.5416Z" fill="#666E75"/>
</svg>