<svg width="52" height="52" viewBox="0 0 52 52" fill="none" xmlns="http://www.w3.org/2000/svg">
<circle cx="25.9998" cy="26" r="22.75" fill="#D6D8DA"/>
<path fill-rule="evenodd" clip-rule="evenodd" d="M16.2498 32.4998C16.2498 31.9015 16.7348 31.4165 17.3331 31.4165H34.6664C35.2647 31.4165 35.7498 31.9015 35.7498 32.4998C35.7498 33.0981 35.2647 33.5832 34.6664 33.5832H17.3331C16.7348 33.5832 16.2498 33.0981 16.2498 32.4998Z" fill="#666E75"/>
<path d="M21.1248 20.3125C21.1248 21.6587 20.0334 22.75 18.6873 22.75C17.3411 22.75 16.2498 21.6587 16.2498 20.3125C16.2498 18.9663 17.3411 17.875 18.6873 17.875C20.0334 17.875 21.1248 18.9663 21.1248 20.3125Z" fill="#666E75"/>
<path d="M35.7498 20.3125C35.7498 21.6587 34.6584 22.75 33.3123 22.75C31.9661 22.75 30.8748 21.6587 30.8748 20.3125C30.8748 18.9663 31.9661 17.875 33.3123 17.875C34.6584 17.875 35.7498 18.9663 35.7498 20.3125Z" fill="#666E75"/>
</svg>
