<svg width="52" height="52" viewBox="0 0 52 52" fill="none" xmlns="http://www.w3.org/2000/svg">
<circle cx="26" cy="26" r="22.75" fill="#5A5754"/>
<path d="M26 3.25C38.5645 3.25 48.75 13.4355 48.75 26C48.75 38.5645 38.5645 48.75 26 48.75C13.4355 48.75 3.25 38.5645 3.25 26C3.25 13.4355 13.4355 3.25 26 3.25ZM18.6875 17.875C17.3413 17.875 16.25 18.9663 16.25 20.3125C16.25 21.6587 17.3413 22.75 18.6875 22.75C20.0337 22.75 21.125 21.6587 21.125 20.3125C21.125 18.9663 20.0337 17.875 18.6875 17.875ZM33.3125 17.875C31.9663 17.875 30.875 18.9663 30.875 20.3125C30.875 21.6587 31.9663 22.75 33.3125 22.75C34.6587 22.75 35.75 21.6587 35.75 20.3125C35.75 18.9663 34.6587 17.875 33.3125 17.875Z" fill="#F7C926"/>
<path fill-rule="evenodd" clip-rule="evenodd" d="M16.25 32.4998C16.25 31.9015 16.735 31.4165 17.3333 31.4165H34.6667C35.265 31.4165 35.75 31.9015 35.75 32.4998C35.75 33.0981 35.265 33.5832 34.6667 33.5832H17.3333C16.735 33.5832 16.25 33.0981 16.25 32.4998Z" fill="#5A5754"/>
</svg>
