<svg width="52" height="52" viewBox="0 0 52 52" fill="none" xmlns="http://www.w3.org/2000/svg">
<circle stroke="#858B91" stroke-width="1" cx="26" cy="26" r="22.75" fill="#D6D8DA"/>
<path fill-rule="evenodd" clip-rule="evenodd" d="M37.5988 13.8588C38.0218 14.2819 38.0218 14.9678 37.5988 15.3909L32.1826 20.8071L31.4161 20.0415L30.6501 19.2754L36.0667 13.8588C36.4898 13.4357 37.1757 13.4357 37.5988 13.8588ZM30.65 20.8075C30.227 20.3845 30.227 19.6985 30.6501 19.2754L31.4161 20.0415L32.1826 20.8071C31.7595 21.2301 31.0731 21.2306 30.65 20.8075Z" fill="#666E75"/>
<path fill-rule="evenodd" clip-rule="evenodd" d="M30.3328 20.0409C30.3328 19.4425 30.8178 18.9575 31.4161 18.9575H38.4578C39.0561 18.9575 39.5411 19.4425 39.5411 20.0409C39.5411 20.6392 39.0561 21.1242 38.4578 21.1242H31.4161C30.8178 21.1242 30.3328 20.6392 30.3328 20.0409Z" fill="#666E75"/>
<path fill-rule="evenodd" clip-rule="evenodd" d="M14.942 13.8588C14.5189 14.2819 14.5189 14.9678 14.942 15.3909L20.3582 20.8071L21.1247 20.0415L21.8907 19.2754L16.4741 13.8588C16.051 13.4357 15.3651 13.4357 14.942 13.8588ZM21.8907 20.8075C22.3138 20.3845 22.3137 19.6985 21.8907 19.2754L21.1247 20.0415L20.3582 20.8071C20.7813 21.2301 21.4677 21.2306 21.8907 20.8075Z" fill="#666E75"/>
<path fill-rule="evenodd" clip-rule="evenodd" d="M22.208 20.0409C22.208 19.4425 21.723 18.9575 21.1247 18.9575H14.083C13.4847 18.9575 12.9997 19.4425 12.9997 20.0409C12.9997 20.6392 13.4847 21.1242 14.083 21.1242H21.1247C21.723 21.1242 22.208 20.6392 22.208 20.0409Z" fill="#666E75"/>
<path fill-rule="evenodd" clip-rule="evenodd" d="M32.3861 33.5839C31.0368 31.3116 28.5576 29.7907 25.7269 29.7907C22.8963 29.7907 20.417 31.3116 19.0678 33.5839H32.3861ZM17.2787 35.7506C16.603 35.7506 16.0892 35.136 16.2961 34.4928C17.578 30.5077 21.3157 27.624 25.7269 27.624C30.1382 27.624 33.8759 30.5077 35.1577 34.4928C35.3646 35.136 34.8508 35.7506 34.1751 35.7506H17.2787Z" fill="#666E75"/>
</svg>
