<svg width="52" height="52" viewBox="0 0 52 52" fill="none" xmlns="http://www.w3.org/2000/svg">
<circle stroke="#858B91" stroke-width="1" cx="25.9998" cy="26" r="22.75" fill="#D6D8DA"/>
<path d="M21.1248 20.3125C21.1248 21.6587 20.0334 22.75 18.6873 22.75C17.3411 22.75 16.2498 21.6587 16.2498 20.3125C16.2498 18.9663 17.3411 17.875 18.6873 17.875C20.0334 17.875 21.1248 18.9663 21.1248 20.3125Z" fill="#666E75"/>
<path d="M35.7498 20.3125C35.7498 21.6587 34.6584 22.75 33.3123 22.75C31.9661 22.75 30.8748 21.6587 30.8748 20.3125C30.8748 18.9663 31.9661 17.875 33.3123 17.875C34.6584 17.875 35.7498 18.9663 35.7498 20.3125Z" fill="#666E75"/>
<path fill-rule="evenodd" clip-rule="evenodd" d="M35.9813 34.2521C30.4758 27.2451 20.4855 27.7409 15.4834 34.2434C15.1186 34.7176 14.4385 34.8063 13.9642 34.4415C13.49 34.0767 13.4013 33.3965 13.7661 32.9223C19.5974 25.3419 31.2737 24.7536 37.685 32.9135C38.0546 33.384 37.9729 34.065 37.5024 34.4347C37.0319 34.8043 36.3509 34.7226 35.9813 34.2521Z" fill="#666E75"/>
</svg>
