<svg width="52" height="52" viewBox="0 0 52 52" fill="none" xmlns="http://www.w3.org/2000/svg">
<circle cx="25.9998" cy="26" r="21.75" fill="#F7C926" stroke="#B18F1B" stroke-width="2"/>
<path d="M21.1248 20.3125C21.1248 21.6587 20.0334 22.75 18.6873 22.75C17.3411 22.75 16.2498 21.6587 16.2498 20.3125C16.2498 18.9663 17.3411 17.875 18.6873 17.875C20.0334 17.875 21.1248 18.9663 21.1248 20.3125Z" fill="#666E75"/>
<path d="M35.7498 20.3125C35.7498 21.6587 34.6584 22.75 33.3123 22.75C31.9661 22.75 30.8748 21.6587 30.8748 20.3125C30.8748 18.9663 31.9661 17.875 33.3123 17.875C34.6584 17.875 35.7498 18.9663 35.7498 20.3125Z" fill="#666E75"/>
<path fill-rule="evenodd" clip-rule="evenodd" d="M14.2612 30.3327C15.8654 35.3599 20.5748 38.9993 26.1322 38.9993C31.6896 38.9993 36.399 35.3599 38.0032 30.3327H14.2612ZM13.5418 28.166C13.0394 28.166 12.5653 28.3984 12.2575 28.7954C11.9497 29.1925 11.8428 29.7095 11.9681 30.1961C13.5915 36.5036 19.3153 41.166 26.1322 41.166C32.9491 41.166 38.6729 36.5036 40.2964 30.1961C40.4216 29.7095 40.3147 29.1925 40.0069 28.7954C39.6991 28.3984 39.225 28.166 38.7226 28.166H13.5418Z" fill="#666E75"/>
</svg>
