<svg width="52" height="52" viewBox="0 0 52 52" fill="none" xmlns="http://www.w3.org/2000/svg">
<circle cx="25.9998" cy="26" r="21.75" fill="#F7C926" stroke="#B18F1B" stroke-width="2"/>
<path d="M21.1248 20.3125C21.1248 21.6587 20.0334 22.75 18.6873 22.75C17.3411 22.75 16.2498 21.6587 16.2498 20.3125C16.2498 18.9663 17.3411 17.875 18.6873 17.875C20.0334 17.875 21.1248 18.9663 21.1248 20.3125Z" fill="#666E75"/>
<path d="M35.7498 20.3125C35.7498 21.6587 34.6584 22.75 33.3123 22.75C31.9661 22.75 30.8748 21.6587 30.8748 20.3125C30.8748 18.9663 31.9661 17.875 33.3123 17.875C34.6584 17.875 35.7498 18.9663 35.7498 20.3125Z" fill="#666E75"/>
<path fill-rule="evenodd" clip-rule="evenodd" d="M35.9814 34.2526C30.4759 27.2456 20.4856 27.7414 15.4836 34.2438C15.1188 34.7181 14.4386 34.8068 13.9644 34.442C13.4901 34.0772 13.4014 33.397 13.7662 32.9228C19.5975 25.3424 31.2738 24.7541 37.6851 32.914C38.0547 33.3845 37.973 34.0655 37.5025 34.4352C37.0321 34.8048 36.351 34.7231 35.9814 34.2526Z" fill="#666E75"/>
</svg>
