<svg width="52" height="52" viewBox="0 0 52 52" fill="none" xmlns="http://www.w3.org/2000/svg">
<circle cx="26" cy="26" r="22.75" fill="#5A5754"/>
<circle cx="26" cy="26" r="21.75" fill="#F7C926" stroke="#B18F1B" stroke-width="2"/>
<path d="M21.125 20.3125C21.125 21.6587 20.0337 22.75 18.6875 22.75C17.3413 22.75 16.25 21.6587 16.25 20.3125C16.25 18.9663 17.3413 17.875 18.6875 17.875C20.0337 17.875 21.125 18.9663 21.125 20.3125Z" fill="#666E75"/>
<path d="M35.75 20.3125C35.75 21.6587 34.6587 22.75 33.3125 22.75C31.9663 22.75 30.875 21.6587 30.875 20.3125C30.875 18.9663 31.9663 17.875 33.3125 17.875C34.6587 17.875 35.75 18.9663 35.75 20.3125Z" fill="#666E75"/>
<path fill-rule="evenodd" clip-rule="evenodd" d="M16.25 32.5003C16.25 31.902 16.735 31.417 17.3333 31.417H34.6667C35.265 31.417 35.75 31.902 35.75 32.5003C35.75 33.0986 35.265 33.5837 34.6667 33.5837H17.3333C16.735 33.5837 16.25 33.0986 16.25 32.5003Z" fill="#666E75"/>
</svg>
