<svg width="52" height="52" viewBox="0 0 52 52" fill="none" xmlns="http://www.w3.org/2000/svg">
<circle cx="26.0002" cy="26" r="22.75" fill="#5A5754"/>
<path d="M26.0001 3.25C38.5646 3.25 48.7501 13.4355 48.7501 26C48.7501 38.5645 38.5646 48.75 26.0001 48.75C13.4357 48.75 3.25012 38.5644 3.25012 26C3.25012 13.4355 13.4357 3.25004 26.0001 3.25ZM18.6876 17.875C17.3415 17.8751 16.2501 18.9664 16.2501 20.3125C16.2502 21.6586 17.3415 22.7499 18.6876 22.75C20.0338 22.75 21.1251 21.6587 21.1251 20.3125C21.1251 18.9663 20.0338 17.875 18.6876 17.875ZM33.3126 17.875C31.9665 17.8751 30.8751 18.9664 30.8751 20.3125C30.8752 21.6586 31.9665 22.7499 33.3126 22.75C34.6588 22.75 35.7501 21.6587 35.7501 20.3125C35.7501 18.9663 34.6588 17.875 33.3126 17.875Z" fill="#F7C926"/>
<path fill-rule="evenodd" clip-rule="evenodd" d="M35.9817 34.2521C30.4763 27.2451 20.486 27.7409 15.4839 34.2434C15.1191 34.7176 14.439 34.8063 13.9647 34.4415C13.4905 34.0767 13.4018 33.3965 13.7666 32.9223C19.5979 25.3419 31.2742 24.7536 37.6854 32.9135C38.0551 33.384 37.9734 34.065 37.5029 34.4347C37.0324 34.8043 36.3514 34.7226 35.9817 34.2521Z" fill="#5A5754"/>
</svg>
