<svg width="52" height="52" viewBox="0 0 52 52" fill="none" xmlns="http://www.w3.org/2000/svg">
<circle cx="26" cy="26" r="22.75" fill="#5A5754"/>
<path d="M26 3.25C38.5645 3.25 48.75 13.4355 48.75 26C48.75 38.5645 38.5645 48.75 26 48.75C13.4355 48.75 3.25 38.5645 3.25 26C3.25 13.4355 13.4355 3.25 26 3.25Z" fill="#F7C926"/>
<path fill-rule="evenodd" clip-rule="evenodd" d="M37.5995 13.8583C38.0226 14.2814 38.0226 14.9673 37.5995 15.3904L32.1833 20.8066L31.4168 20.041L30.6508 19.2749L36.0674 13.8583C36.4905 13.4352 37.1764 13.4352 37.5995 13.8583ZM30.6508 20.807C30.2277 20.384 30.2278 19.698 30.6508 19.2749L31.4168 20.041L32.1833 20.8066C31.7602 21.2297 31.0738 21.2301 30.6508 20.807Z" fill="#5A5754"/>
<path fill-rule="evenodd" clip-rule="evenodd" d="M30.3335 20.0404C30.3335 19.4421 30.8185 18.957 31.4168 18.957H38.4585C39.0568 18.957 39.5418 19.4421 39.5418 20.0404C39.5418 20.6387 39.0568 21.1237 38.4585 21.1237H31.4168C30.8185 21.1237 30.3335 20.6387 30.3335 20.0404Z" fill="#5A5754"/>
<path fill-rule="evenodd" clip-rule="evenodd" d="M14.9419 13.8583C14.5188 14.2814 14.5188 14.9673 14.9419 15.3904L20.3581 20.8066L21.1246 20.041L21.8906 19.2749L16.4739 13.8583C16.0509 13.4352 15.3649 13.4352 14.9419 13.8583ZM21.8906 20.807C22.3137 20.384 22.3136 19.698 21.8906 19.2749L21.1246 20.041L20.3581 20.8066C20.7812 21.2297 21.4675 21.2301 21.8906 20.807Z" fill="#5A5754"/>
<path fill-rule="evenodd" clip-rule="evenodd" d="M22.2079 20.0404C22.2079 19.4421 21.7229 18.957 21.1246 18.957H14.0829C13.4846 18.957 12.9996 19.4421 12.9996 20.0404C12.9996 20.6387 13.4846 21.1237 14.0829 21.1237H21.1246C21.7229 21.1237 22.2079 20.6387 22.2079 20.0404Z" fill="#5A5754"/>
<path fill-rule="evenodd" clip-rule="evenodd" d="M17.2793 36.2897C16.6278 36.2897 16.1193 35.7159 16.2795 35.0844C17.3678 30.796 21.2537 27.6235 25.8805 27.6235C30.5073 27.6235 34.3932 30.796 35.4815 35.0844C35.6417 35.7159 35.1332 36.2897 34.4817 36.2897H17.2793Z" fill="#5A5754"/>
</svg>
