<svg width="52" height="52" viewBox="0 0 52 52" fill="none" xmlns="http://www.w3.org/2000/svg">
<circle cx="25.9998" cy="26" r="22.75" fill="#5A5754"/>
<path stroke="#B18F1B" stroke-width="2" d="M25.9999 3.25C38.5643 3.25005 48.7499 13.4356 48.7499 26C48.7499 38.5644 38.5643 48.75 25.9999 48.75C13.4354 48.75 3.24988 38.5645 3.24988 26C3.24988 13.4355 13.4354 3.25 25.9999 3.25ZM18.6874 17.875C17.3412 17.875 16.2499 18.9663 16.2499 20.3125C16.2499 21.6587 17.3412 22.75 18.6874 22.75C20.0335 22.7499 21.1248 21.6586 21.1249 20.3125C21.1249 18.9664 20.0335 17.8751 18.6874 17.875ZM33.3124 17.875C31.9662 17.875 30.8749 18.9663 30.8749 20.3125C30.8749 21.6587 31.9662 22.75 33.3124 22.75C34.6585 22.7499 35.7498 21.6586 35.7499 20.3125C35.7499 18.9664 34.6585 17.8751 33.3124 17.875Z" fill="#F7C926"/>
<path d="M13.5414 28.8892H38.722C39.0011 28.8892 39.2649 29.0182 39.4359 29.2388C39.6066 29.4592 39.6664 29.7461 39.597 30.0161C38.0537 36.0123 32.6112 40.4437 26.1322 40.4438C19.653 40.4438 14.2107 36.0125 12.6674 30.0161C12.598 29.7461 12.6568 29.4592 12.8275 29.2388C12.9985 29.0182 13.2623 28.8892 13.5414 28.8892Z" fill="#5A5754" stroke="#5A5754" stroke-width="1.44444"/>
</svg>
