<svg width="52" height="52" viewBox="0 0 52 52" fill="none" xmlns="http://www.w3.org/2000/svg">
<circle cx="26" cy="26.0044" r="22.75" fill="#EBECED"/>
<path fill-rule="evenodd" clip-rule="evenodd" d="M37.5988 13.8632C38.0218 14.2863 38.0218 14.9722 37.5988 15.3953L32.1826 20.8115L31.4161 20.0459L30.6501 19.2798L36.0667 13.8632C36.4898 13.4401 37.1757 13.4401 37.5988 13.8632ZM30.65 20.8119C30.227 20.3889 30.227 19.7029 30.6501 19.2798L31.4161 20.0459L32.1826 20.8115C31.7595 21.2345 31.0731 21.235 30.65 20.8119Z" fill="#858B91"/>
<path fill-rule="evenodd" clip-rule="evenodd" d="M30.3328 20.0452C30.3328 19.4469 30.8178 18.9619 31.4161 18.9619H38.4578C39.0561 18.9619 39.5411 19.4469 39.5411 20.0452C39.5411 20.6436 39.0561 21.1286 38.4578 21.1286H31.4161C30.8178 21.1286 30.3328 20.6436 30.3328 20.0452Z" fill="#858B91"/>
<path fill-rule="evenodd" clip-rule="evenodd" d="M14.942 13.8632C14.5189 14.2863 14.5189 14.9722 14.942 15.3953L20.3582 20.8115L21.1247 20.0459L21.8907 19.2798L16.4741 13.8632C16.051 13.4401 15.3651 13.4401 14.942 13.8632ZM21.8907 20.8119C22.3138 20.3889 22.3137 19.7029 21.8907 19.2798L21.1247 20.0459L20.3582 20.8115C20.7813 21.2345 21.4677 21.235 21.8907 20.8119Z" fill="#858B91"/>
<path fill-rule="evenodd" clip-rule="evenodd" d="M22.208 20.0452C22.208 19.4469 21.723 18.9619 21.1247 18.9619H14.083C13.4847 18.9619 12.9997 19.4469 12.9997 20.0452C12.9997 20.6436 13.4847 21.1286 14.083 21.1286H21.1247C21.723 21.1286 22.208 20.6436 22.208 20.0452Z" fill="#858B91"/>
<path fill-rule="evenodd" clip-rule="evenodd" d="M32.3861 33.5878C31.0368 31.3155 28.5576 29.7946 25.7269 29.7946C22.8963 29.7946 20.417 31.3155 19.0678 33.5878H32.3861ZM17.2787 35.7545C16.603 35.7545 16.0892 35.14 16.2961 34.4967C17.578 30.5116 21.3157 27.6279 25.7269 27.6279C30.1382 27.6279 33.8759 30.5116 35.1577 34.4967C35.3646 35.14 34.8508 35.7545 34.1751 35.7545H17.2787Z" fill="#858B91"/>
</svg>
